<mxfile host="app.diagrams.net" modified="2022-04-20T16:31:55.299Z" agent="5.0 (X11; Linux x86_64) AppleWebKit/537.36 (KHTML, like Gecko) Chrome/97.0.4692.99 Safari/537.36" etag="Sf4ONsSrJlLnSkO32hc6" version="17.4.6" type="github">
  <diagram id="wPwa-OCC5YV9gxHPG1zq" name="Page-1">
    <mxGraphModel dx="1138" dy="615" grid="1" gridSize="10" guides="1" tooltips="1" connect="1" arrows="1" fold="1" page="1" pageScale="1" pageWidth="1169" pageHeight="827" math="0" shadow="0">
      <root>
        <mxCell id="0" />
        <mxCell id="1" parent="0" />
        <mxCell id="F8oq_pFOTgnIbFG9IkiV-1" value="" style="group;rounded=0;labelBackgroundColor=none;fontFamily=Helvetica;fontSize=14;fontColor=none;strokeColor=none;fillColor=none;align=left;html=1;" parent="1" vertex="1" connectable="0">
          <mxGeometry x="70" y="170" width="1076" height="670" as="geometry" />
        </mxCell>
        <mxCell id="F8oq_pFOTgnIbFG9IkiV-2" value="" style="rounded=0;whiteSpace=wrap;html=1;fillColor=default;strokeColor=#ffaa9c;fontFamily=Helvetica;fontSize=12;fontColor=#000000;align=left;labelBackgroundColor=none;connectable=0;container=0;allowArrows=0;" parent="F8oq_pFOTgnIbFG9IkiV-1" vertex="1">
          <mxGeometry x="16" y="40" width="1076" height="630" as="geometry" />
        </mxCell>
        <mxCell id="F8oq_pFOTgnIbFG9IkiV-3" value="&lt;font style=&quot;font-size: 36px&quot;&gt;FlowCardName Diagram&lt;/font&gt;" style="text;html=1;align=center;verticalAlign=middle;resizable=0;points=[];autosize=1;strokeColor=none;fillColor=none;fontSize=12;fontFamily=Helvetica;fontColor=#fe5535;rounded=0;labelBackgroundColor=none;connectable=0;allowArrows=0;" parent="F8oq_pFOTgnIbFG9IkiV-1" vertex="1">
          <mxGeometry x="222.88571428571427" width="410" height="30" as="geometry" />
        </mxCell>
        <mxCell id="F8oq_pFOTgnIbFG9IkiV-4" value="&lt;b&gt;flowcard &lt;/b&gt;FlowCardName(buyer, seller, validator: Address, E: ERG, T: Token, txFee: ERG)" style="text;html=1;align=center;verticalAlign=middle;resizable=0;points=[];autosize=1;strokeColor=none;fillColor=none;fontSize=12;fontFamily=Helvetica;fontColor=#000000;rounded=0;labelBackgroundColor=none;connectable=0;allowArrows=0;" parent="F8oq_pFOTgnIbFG9IkiV-1" vertex="1">
          <mxGeometry x="172.14285714285714" y="50" width="490" height="20" as="geometry" />
        </mxCell>
        <mxCell id="F8oq_pFOTgnIbFG9IkiV-5" value="" style="group;allowArrows=0;connectable=0;rounded=0;labelBackgroundColor=none;fontFamily=Helvetica;fontSize=14;fontColor=none;strokeColor=none;fillColor=none;align=left;html=1;" parent="F8oq_pFOTgnIbFG9IkiV-1" vertex="1" connectable="0">
          <mxGeometry x="26" y="110" width="294" height="460" as="geometry" />
        </mxCell>
        <mxCell id="F8oq_pFOTgnIbFG9IkiV-6" value="&lt;div&gt;pk(buyer)&lt;/div&gt;" style="rounded=0;whiteSpace=wrap;html=1;fontFamily=Helvetica;fontSize=12;strokeColor=none;fillColor=#ffe4e0;fontColor=#000000;align=left;container=0;labelBackgroundColor=none;allowArrows=0;connectable=0;verticalAlign=top;spacingLeft=5;" parent="F8oq_pFOTgnIbFG9IkiV-5" vertex="1">
          <mxGeometry y="27.6" width="294" height="432.4" as="geometry" />
        </mxCell>
        <mxCell id="F8oq_pFOTgnIbFG9IkiV-7" value="&lt;div align=&quot;left&quot;&gt;&lt;font style=&quot;font-size: 24px&quot;&gt;Buyer&#39;s Wallet&lt;/font&gt;&lt;br&gt;&lt;/div&gt;" style="text;html=1;align=center;verticalAlign=middle;resizable=0;points=[];autosize=1;strokeColor=none;fillColor=none;fontSize=12;fontFamily=Helvetica;fontColor=#000000;rounded=0;container=0;labelBackgroundColor=none;connectable=0;allowArrows=0;" parent="F8oq_pFOTgnIbFG9IkiV-5" vertex="1">
          <mxGeometry x="39.527881040892204" width="170" height="20" as="geometry" />
        </mxCell>
        <mxCell id="F8oq_pFOTgnIbFG9IkiV-8" value="" style="group;rounded=0;fontFamily=Helvetica;fontSize=12;fontColor=#000000;strokeColor=none;fillColor=none;align=left;labelBackgroundColor=none;html=1;allowArrows=0;" parent="F8oq_pFOTgnIbFG9IkiV-5" vertex="1" connectable="0">
          <mxGeometry x="22.87" y="67.3138675958188" width="248.26" height="98.57142857142857" as="geometry" />
        </mxCell>
        <mxCell id="F8oq_pFOTgnIbFG9IkiV-9" value="&lt;div style=&quot;font-size: 12px&quot; align=&quot;left&quot;&gt;&lt;font style=&quot;font-size: 12px&quot; color=&quot;#000000&quot;&gt;E: ERG&lt;/font&gt;&lt;/div&gt;&lt;div style=&quot;font-size: 12px&quot; align=&quot;left&quot;&gt;&lt;br&gt;&lt;/div&gt;&lt;div&gt;&lt;br&gt;&lt;/div&gt;&lt;div style=&quot;font-size: 12px&quot;&gt;&lt;br&gt;&lt;/div&gt;" style="rounded=0;whiteSpace=wrap;html=1;fontFamily=Helvetica;fontSize=24;fontColor=#000000;strokeColor=none;fillColor=#ffaa9b;align=left;labelBackgroundColor=none;allowArrows=0;verticalAlign=top;spacingLeft=5;" parent="F8oq_pFOTgnIbFG9IkiV-8" vertex="1">
          <mxGeometry y="20" width="248.26" height="78.57" as="geometry" />
        </mxCell>
        <mxCell id="F8oq_pFOTgnIbFG9IkiV-10" value="balance" style="text;html=1;align=left;verticalAlign=middle;resizable=0;points=[];autosize=1;strokeColor=none;fillColor=none;fontSize=12;fontFamily=Helvetica;fontColor=#ff5536;rounded=0;labelBackgroundColor=none;allowArrows=0;connectable=0;" parent="F8oq_pFOTgnIbFG9IkiV-8" vertex="1">
          <mxGeometry y="2.7380952380952372" width="60" height="20" as="geometry" />
        </mxCell>
        <mxCell id="QykKPUBNx--C2hL6VAvS-31" value="" style="group;rounded=0;fontFamily=Helvetica;fontSize=12;fontColor=#000000;strokeColor=none;fillColor=none;align=left;labelBackgroundColor=none;html=1;allowArrows=0;" vertex="1" connectable="0" parent="F8oq_pFOTgnIbFG9IkiV-5">
          <mxGeometry x="22.870000000000005" y="180.7094773519164" width="248.26" height="98.57142857142857" as="geometry" />
        </mxCell>
        <mxCell id="QykKPUBNx--C2hL6VAvS-32" value="&lt;div style=&quot;font-size: 12px&quot; align=&quot;left&quot;&gt;&lt;font style=&quot;font-size: 12px&quot; color=&quot;#000000&quot;&gt;E - depAmt: ERG&lt;/font&gt;&lt;/div&gt;&lt;div style=&quot;font-size: 12px&quot; align=&quot;left&quot;&gt;&lt;br&gt;&lt;/div&gt;&lt;div&gt;&lt;br&gt;&lt;/div&gt;&lt;div style=&quot;font-size: 12px&quot;&gt;&lt;br&gt;&lt;/div&gt;" style="rounded=0;whiteSpace=wrap;html=1;fontFamily=Helvetica;fontSize=24;fontColor=#000000;strokeColor=none;fillColor=#ffaa9b;align=left;labelBackgroundColor=none;allowArrows=0;verticalAlign=top;spacingLeft=5;" vertex="1" parent="QykKPUBNx--C2hL6VAvS-31">
          <mxGeometry y="20" width="248.26" height="78.57" as="geometry" />
        </mxCell>
        <mxCell id="QykKPUBNx--C2hL6VAvS-33" value="change" style="text;html=1;align=left;verticalAlign=middle;resizable=0;points=[];autosize=1;strokeColor=none;fillColor=none;fontSize=12;fontFamily=Helvetica;fontColor=#ff5536;rounded=0;labelBackgroundColor=none;allowArrows=0;connectable=0;" vertex="1" parent="QykKPUBNx--C2hL6VAvS-31">
          <mxGeometry y="2.7380952380952372" width="50" height="20" as="geometry" />
        </mxCell>
        <mxCell id="QykKPUBNx--C2hL6VAvS-1" value="" style="group;rounded=0;fontFamily=Helvetica;fontSize=12;fontColor=#000000;strokeColor=none;fillColor=none;align=left;labelBackgroundColor=none;html=1;allowArrows=0;" vertex="1" connectable="0" parent="F8oq_pFOTgnIbFG9IkiV-5">
          <mxGeometry x="22.87" y="310.00142857142856" width="248.26" height="134.9" as="geometry" />
        </mxCell>
        <mxCell id="QykKPUBNx--C2hL6VAvS-2" value="&lt;div style=&quot;font-size: 12px&quot; align=&quot;left&quot;&gt;&lt;font style=&quot;font-size: 12px&quot; color=&quot;#000000&quot;&gt;depAmt - minFee: ERG&lt;/font&gt;&lt;/div&gt;&lt;div style=&quot;font-size: 12px&quot; align=&quot;left&quot;&gt;&lt;br&gt;&lt;/div&gt;&lt;div style=&quot;font-size: 12px&quot; align=&quot;left&quot;&gt;&lt;span&gt;escrowBox ? script == buyer&lt;/span&gt;&lt;/div&gt;&lt;div&gt;&lt;br&gt;&lt;/div&gt;&lt;div style=&quot;font-size: 12px&quot;&gt;&lt;br&gt;&lt;/div&gt;" style="rounded=0;whiteSpace=wrap;html=1;fontFamily=Helvetica;fontSize=24;fontColor=#000000;strokeColor=none;fillColor=#ffaa9b;align=left;labelBackgroundColor=none;allowArrows=0;verticalAlign=top;spacingLeft=5;" vertex="1" parent="QykKPUBNx--C2hL6VAvS-1">
          <mxGeometry y="20" width="248.26" height="114.9" as="geometry" />
        </mxCell>
        <mxCell id="QykKPUBNx--C2hL6VAvS-3" value="refund" style="text;html=1;align=left;verticalAlign=middle;resizable=0;points=[];autosize=1;strokeColor=none;fillColor=none;fontSize=12;fontFamily=Helvetica;fontColor=#ff5536;rounded=0;labelBackgroundColor=none;allowArrows=0;connectable=0;" vertex="1" parent="QykKPUBNx--C2hL6VAvS-1">
          <mxGeometry y="3.7470833333333324" width="50" height="20" as="geometry" />
        </mxCell>
        <mxCell id="QykKPUBNx--C2hL6VAvS-4" value="&lt;div&gt;escrow&lt;/div&gt;" style="rounded=0;whiteSpace=wrap;html=1;fontFamily=Helvetica;fontSize=14;fontColor=#FFFFFF;strokeColor=none;fillColor=#9f9f9f;align=center;" vertex="1" parent="F8oq_pFOTgnIbFG9IkiV-1">
          <mxGeometry x="367.1400000000001" y="211.6" width="100" height="50" as="geometry" />
        </mxCell>
        <mxCell id="QykKPUBNx--C2hL6VAvS-27" value="" style="endArrow=block;html=1;fontFamily=Helvetica;fontSize=14;fontColor=#FFFFFF;endFill=1;strokeWidth=5;strokeColor=#ee7e34;rounded=0;entryX=0;entryY=0.5;entryDx=0;entryDy=0;exitX=1;exitY=0.5;exitDx=0;exitDy=0;" edge="1" parent="F8oq_pFOTgnIbFG9IkiV-1" source="F8oq_pFOTgnIbFG9IkiV-9" target="QykKPUBNx--C2hL6VAvS-4">
          <mxGeometry width="50" height="50" relative="1" as="geometry">
            <mxPoint x="294.26" y="209.5" as="sourcePoint" />
            <mxPoint x="414.26" y="209.5" as="targetPoint" />
          </mxGeometry>
        </mxCell>
        <mxCell id="QykKPUBNx--C2hL6VAvS-34" value="" style="endArrow=block;html=1;fontFamily=Helvetica;fontSize=14;fontColor=#FFFFFF;endFill=1;strokeWidth=5;strokeColor=#a9d08e;rounded=0;exitX=0.25;exitY=1;exitDx=0;exitDy=0;" edge="1" parent="F8oq_pFOTgnIbFG9IkiV-1" source="QykKPUBNx--C2hL6VAvS-4">
          <mxGeometry width="50" height="50" relative="1" as="geometry">
            <mxPoint x="406" y="320" as="sourcePoint" />
            <mxPoint x="306" y="330" as="targetPoint" />
            <Array as="points">
              <mxPoint x="390" y="330" />
            </Array>
          </mxGeometry>
        </mxCell>
        <mxCell id="QykKPUBNx--C2hL6VAvS-18" value="" style="group;allowArrows=0;connectable=0;rounded=0;labelBackgroundColor=none;fontFamily=Helvetica;fontSize=14;fontColor=none;strokeColor=none;fillColor=none;align=left;html=1;" vertex="1" connectable="0" parent="F8oq_pFOTgnIbFG9IkiV-1">
          <mxGeometry x="646" y="440" width="294" height="190" as="geometry" />
        </mxCell>
        <mxCell id="QykKPUBNx--C2hL6VAvS-19" value="&lt;div&gt;pk(seller)&lt;/div&gt;" style="rounded=0;whiteSpace=wrap;html=1;fontFamily=Helvetica;fontSize=12;strokeColor=none;fillColor=#ffe4e0;fontColor=#000000;align=left;container=0;labelBackgroundColor=none;allowArrows=0;connectable=0;verticalAlign=top;spacingLeft=5;" vertex="1" parent="QykKPUBNx--C2hL6VAvS-18">
          <mxGeometry y="30" width="294" height="160" as="geometry" />
        </mxCell>
        <mxCell id="QykKPUBNx--C2hL6VAvS-20" value="&lt;div align=&quot;left&quot;&gt;&lt;font style=&quot;font-size: 24px&quot;&gt;Seller&#39;s Wallet&lt;/font&gt;&lt;br&gt;&lt;/div&gt;" style="text;html=1;align=center;verticalAlign=middle;resizable=0;points=[];autosize=1;strokeColor=none;fillColor=none;fontSize=12;fontFamily=Helvetica;fontColor=#000000;rounded=0;container=0;labelBackgroundColor=none;connectable=0;allowArrows=0;" vertex="1" parent="QykKPUBNx--C2hL6VAvS-18">
          <mxGeometry x="39.527881040892204" width="170" height="20" as="geometry" />
        </mxCell>
        <mxCell id="QykKPUBNx--C2hL6VAvS-24" value="" style="group;rounded=0;fontFamily=Helvetica;fontSize=12;fontColor=#000000;strokeColor=none;fillColor=none;align=left;labelBackgroundColor=none;html=1;allowArrows=0;" vertex="1" connectable="0" parent="QykKPUBNx--C2hL6VAvS-18">
          <mxGeometry x="22.87" y="53.99352941176471" width="248.26" height="93.40176470588234" as="geometry" />
        </mxCell>
        <mxCell id="QykKPUBNx--C2hL6VAvS-25" value="&lt;div style=&quot;font-size: 12px&quot; align=&quot;left&quot;&gt;&lt;font style=&quot;font-size: 12px&quot; color=&quot;#000000&quot;&gt;E: ERG&lt;/font&gt;&lt;/div&gt;&lt;div style=&quot;font-size: 12px&quot; align=&quot;left&quot;&gt;&lt;font style=&quot;font-size: 12px&quot; color=&quot;#000000&quot;&gt;T: Token&lt;br&gt;&lt;/font&gt;&lt;/div&gt;&lt;div style=&quot;font-size: 12px&quot; align=&quot;left&quot;&gt;&lt;font style=&quot;font-size: 12px&quot; color=&quot;#000000&quot;&gt;R == value&lt;/font&gt;&lt;/div&gt;&lt;div style=&quot;font-size: 12px&quot; align=&quot;left&quot;&gt;&lt;font style=&quot;font-size: 12px&quot; color=&quot;#000000&quot;&gt;boxName ? condition&lt;br&gt;&lt;/font&gt;&lt;/div&gt;&lt;div&gt;&lt;br&gt;&lt;/div&gt;&lt;div style=&quot;font-size: 12px&quot;&gt;&lt;br&gt;&lt;/div&gt;" style="rounded=0;whiteSpace=wrap;html=1;fontFamily=Helvetica;fontSize=24;fontColor=#000000;strokeColor=none;fillColor=#ffaa9b;align=left;labelBackgroundColor=none;allowArrows=0;verticalAlign=top;spacingLeft=5;" vertex="1" parent="QykKPUBNx--C2hL6VAvS-24">
          <mxGeometry y="23.350441176470586" width="248.26" height="70.05132352941175" as="geometry" />
        </mxCell>
        <mxCell id="QykKPUBNx--C2hL6VAvS-26" value="payment" style="text;html=1;align=left;verticalAlign=middle;resizable=0;points=[];autosize=1;strokeColor=none;fillColor=none;fontSize=12;fontFamily=Helvetica;fontColor=#ff5536;rounded=0;labelBackgroundColor=none;allowArrows=0;connectable=0;" vertex="1" parent="QykKPUBNx--C2hL6VAvS-24">
          <mxGeometry y="2.5944934640522868" width="60" height="20" as="geometry" />
        </mxCell>
        <mxCell id="QykKPUBNx--C2hL6VAvS-37" value="&lt;div&gt;withdraw&lt;/div&gt;" style="rounded=0;whiteSpace=wrap;html=1;fontFamily=Helvetica;fontSize=14;fontColor=#FFFFFF;strokeColor=none;fillColor=#9f9f9f;align=center;" vertex="1" parent="F8oq_pFOTgnIbFG9IkiV-1">
          <mxGeometry x="430.0000000000001" y="472.45" width="100" height="50" as="geometry" />
        </mxCell>
        <mxCell id="QykKPUBNx--C2hL6VAvS-41" value="" style="endArrow=block;html=1;fontFamily=Helvetica;fontSize=14;fontColor=#FFFFFF;endFill=1;strokeWidth=5;strokeColor=#a9d08e;rounded=0;exitX=0;exitY=0.5;exitDx=0;exitDy=0;" edge="1" parent="F8oq_pFOTgnIbFG9IkiV-1" source="QykKPUBNx--C2hL6VAvS-37" target="QykKPUBNx--C2hL6VAvS-2">
          <mxGeometry width="50" height="50" relative="1" as="geometry">
            <mxPoint x="546" y="390" as="sourcePoint" />
            <mxPoint x="666" y="390" as="targetPoint" />
          </mxGeometry>
        </mxCell>
        <mxCell id="QykKPUBNx--C2hL6VAvS-42" value="&lt;div&gt;@0&lt;/div&gt;" style="edgeLabel;html=1;align=center;verticalAlign=middle;resizable=0;points=[];fontSize=14;fontFamily=Helvetica;fontColor=#000000;labelBackgroundColor=none;rounded=0;strokeColor=default;fillColor=none;allowArrows=0;" vertex="1" connectable="0" parent="QykKPUBNx--C2hL6VAvS-41">
          <mxGeometry x="0.5833" y="-1" relative="1" as="geometry">
            <mxPoint x="45" y="-16" as="offset" />
          </mxGeometry>
        </mxCell>
        <mxCell id="QykKPUBNx--C2hL6VAvS-9" value="" style="group;allowArrows=0;connectable=0;rounded=0;labelBackgroundColor=none;fontFamily=Helvetica;fontSize=14;fontColor=none;strokeColor=none;fillColor=none;align=left;html=1;" vertex="1" connectable="0" parent="F8oq_pFOTgnIbFG9IkiV-1">
          <mxGeometry x="530" y="110" width="160" height="270" as="geometry" />
        </mxCell>
        <mxCell id="QykKPUBNx--C2hL6VAvS-10" value="&lt;div&gt;escrowContract&lt;/div&gt;" style="rounded=0;whiteSpace=wrap;html=1;fontFamily=Helvetica;fontSize=12;strokeColor=none;fillColor=#ffe4e0;fontColor=#000000;align=left;container=0;labelBackgroundColor=none;allowArrows=0;connectable=0;verticalAlign=top;spacingLeft=5;" vertex="1" parent="QykKPUBNx--C2hL6VAvS-9">
          <mxGeometry y="42.63157894736842" width="160" height="227.36842105263156" as="geometry" />
        </mxCell>
        <mxCell id="QykKPUBNx--C2hL6VAvS-11" value="&lt;div align=&quot;left&quot;&gt;&lt;font style=&quot;font-size: 24px&quot;&gt;escrowContract&lt;/font&gt;&lt;br&gt;&lt;/div&gt;" style="text;html=1;align=center;verticalAlign=middle;resizable=0;points=[];autosize=1;strokeColor=none;fillColor=none;fontSize=12;fontFamily=Helvetica;fontColor=#000000;rounded=0;container=0;labelBackgroundColor=none;connectable=0;allowArrows=0;" vertex="1" parent="QykKPUBNx--C2hL6VAvS-9">
          <mxGeometry x="14.545454545454547" width="180" height="20" as="geometry" />
        </mxCell>
        <mxCell id="QykKPUBNx--C2hL6VAvS-12" value="" style="group;rounded=0;fontFamily=Helvetica;fontSize=12;fontColor=#000000;strokeColor=none;fillColor=none;align=left;labelBackgroundColor=none;html=1;allowArrows=0;" vertex="1" connectable="0" parent="QykKPUBNx--C2hL6VAvS-9">
          <mxGeometry x="21.81818181818182" y="85.26" width="72.72727272727273" height="85.26" as="geometry" />
        </mxCell>
        <mxCell id="QykKPUBNx--C2hL6VAvS-13" value="&lt;div style=&quot;font-size: 12px&quot; align=&quot;left&quot;&gt;&lt;font style=&quot;font-size: 12px&quot; color=&quot;#000000&quot;&gt;depAmt: ERG&lt;/font&gt;&lt;/div&gt;&lt;div style=&quot;font-size: 12px&quot; align=&quot;left&quot;&gt;&lt;br&gt;&lt;/div&gt;&lt;div style=&quot;font-size: 12px&quot;&gt;&lt;br&gt;&lt;/div&gt;" style="rounded=0;whiteSpace=wrap;html=1;fontFamily=Helvetica;fontSize=24;fontColor=#000000;strokeColor=none;fillColor=#ffaa9b;align=left;labelBackgroundColor=none;allowArrows=0;verticalAlign=top;spacingLeft=5;" vertex="1" parent="QykKPUBNx--C2hL6VAvS-12">
          <mxGeometry y="28.42" width="72.72727272727273" height="56.84" as="geometry" />
        </mxCell>
        <mxCell id="QykKPUBNx--C2hL6VAvS-14" value="escrowBox" style="text;html=1;align=left;verticalAlign=middle;resizable=0;points=[];autosize=1;strokeColor=none;fillColor=none;fontSize=12;fontFamily=Helvetica;fontColor=#ff5536;rounded=0;labelBackgroundColor=none;allowArrows=0;connectable=0;" vertex="1" parent="QykKPUBNx--C2hL6VAvS-12">
          <mxGeometry y="2.3683333333333327" width="70" height="20" as="geometry" />
        </mxCell>
        <mxCell id="QykKPUBNx--C2hL6VAvS-29" value="" style="endArrow=block;html=1;fontFamily=Helvetica;fontSize=14;fontColor=#FFFFFF;endFill=1;strokeWidth=5;strokeColor=#a9d08e;rounded=0;exitX=1;exitY=0.5;exitDx=0;exitDy=0;entryX=0;entryY=0.25;entryDx=0;entryDy=0;" edge="1" parent="F8oq_pFOTgnIbFG9IkiV-1" source="QykKPUBNx--C2hL6VAvS-4" target="QykKPUBNx--C2hL6VAvS-13">
          <mxGeometry width="50" height="50" relative="1" as="geometry">
            <mxPoint x="546" y="290" as="sourcePoint" />
            <mxPoint x="666" y="290" as="targetPoint" />
          </mxGeometry>
        </mxCell>
        <mxCell id="QykKPUBNx--C2hL6VAvS-30" value="" style="edgeLabel;html=1;align=center;verticalAlign=middle;resizable=0;points=[];fontSize=14;fontFamily=Helvetica;fontColor=#000000;labelBackgroundColor=none;rounded=0;strokeColor=default;fillColor=none;allowArrows=0;" vertex="1" connectable="0" parent="QykKPUBNx--C2hL6VAvS-29">
          <mxGeometry x="0.5833" y="-1" relative="1" as="geometry">
            <mxPoint x="-45" y="9" as="offset" />
          </mxGeometry>
        </mxCell>
        <mxCell id="QykKPUBNx--C2hL6VAvS-38" value="" style="endArrow=block;html=1;fontFamily=Helvetica;fontSize=14;fontColor=#FFFFFF;endFill=1;strokeWidth=5;strokeColor=#ee7e34;rounded=0;exitX=0;exitY=0.75;exitDx=0;exitDy=0;" edge="1" parent="F8oq_pFOTgnIbFG9IkiV-1" source="QykKPUBNx--C2hL6VAvS-13" target="QykKPUBNx--C2hL6VAvS-37">
          <mxGeometry width="50" height="50" relative="1" as="geometry">
            <mxPoint x="546" y="390" as="sourcePoint" />
            <mxPoint x="666" y="390" as="targetPoint" />
            <Array as="points">
              <mxPoint x="480" y="270" />
            </Array>
          </mxGeometry>
        </mxCell>
        <mxCell id="QykKPUBNx--C2hL6VAvS-39" value="&lt;div&gt;&lt;br&gt;&lt;/div&gt;&lt;div&gt;!refund&lt;/div&gt;&lt;div&gt;?seller ||&amp;nbsp;&lt;/div&gt;&lt;div&gt;?validator&amp;nbsp;&lt;br&gt;&lt;br&gt;&lt;/div&gt;&lt;div&gt;&lt;br&gt;&lt;/div&gt;" style="edgeLabel;html=1;align=left;verticalAlign=middle;resizable=0;points=[];fontSize=14;fontFamily=Helvetica;fontColor=#000000;labelBackgroundColor=none;rounded=0;strokeColor=default;fillColor=none;allowArrows=0;" vertex="1" connectable="0" parent="QykKPUBNx--C2hL6VAvS-38">
          <mxGeometry x="0.5833" y="-1" relative="1" as="geometry">
            <mxPoint x="-69" y="-64" as="offset" />
          </mxGeometry>
        </mxCell>
      </root>
    </mxGraphModel>
  </diagram>
</mxfile>
